# xmcd
#
# Track frame offsets: 
#        150
#        16040
#        33489
#        49573
#        63650
#        85919
#        115262
#        132293
#        153309
#        172123
#        185532
#        206403
#        226206
#
# Disc length: 3195 seconds
#
# Revision: 0
# Processed by: cddbd v1.5.2PL0 Copyright (c) Steve Scherf et al.
# Submitted via: ExactAudioCopy v0.95b4
#
DISCID=a60c790d
DTITLE=Karu Llaqta - Musica De Los Andes
DYEAR=2002
DGENRE=Latin
TTITLE0=Buscandote
TTITLE1=Lejanias
TTITLE2=Peguche
TTITLE3=Atacamenos
TTITLE4=Tiempo De Amar
TTITLE5=Condor Pasa
TTITLE6=Misterio
TTITLE7=Pankarita
TTITLE8=Pampa Lirima
TTITLE9=Humahuaqueno
TTITLE10=Bailando En Islugan
TTITLE11=Achacachi
TTITLE12=Cazambeno
EXTD=
EXTT0=
EXTT1=
EXTT2=
EXTT3=
EXTT4=
EXTT5=
EXTT6=
EXTT7=
EXTT8=
EXTT9=
EXTT10=
EXTT11=
EXTT12=
PLAYORDER=
